<svg width="14" height="15" viewBox="0 0 14 15" fill="none" xmlns="http://www.w3.org/2000/svg">
<g clip-path="url(#clip0_0_425)">
<path d="M9.29657 10.8006L12.8549 14.4646C13.1114 14.7287 13.5335 14.7349 13.7976 14.4784C14.0617 14.2219 14.0679 13.7998 13.8114 13.5357L10.2531 9.87167C9.99656 9.60754 9.57449 9.60137 9.31036 9.85788C9.04623 10.1144 9.04006 10.5365 9.29657 10.8006Z" fill="#ffffff"/>
<path fill-rule="evenodd" clip-rule="evenodd" d="M6.09612 12.0655C9.46128 12.0655 12.1925 9.36638 12.1925 6.0328C12.1925 2.69923 9.46128 0.000137329 6.09612 0.000137329C2.73101 0.000137329 0.00012207 2.69918 0.00012207 6.0328C0.00012207 9.36643 2.73101 12.0655 6.09612 12.0655ZM6.09612 1.33347C8.72841 1.33347 10.8591 3.43916 10.8591 6.0328C10.8591 8.62645 8.72841 10.7321 6.09612 10.7321C3.46391 10.7321 1.33346 8.62653 1.33346 6.0328C1.33346 3.43908 3.46391 1.33347 6.09612 1.33347Z" fill="#ffffff"/>
</g>
<defs>
<clipPath id="clip0_0_425">
<rect width="14" height="14.875" fill="#ffffff"/>
</clipPath>
</defs>
</svg>
